<svg width="16" height="20" viewBox="0 0 16 20" fill="none" xmlns="http://www.w3.org/2000/svg">
<path id="Vector" d="M15.1031 4.21745C14.5077 3.0674 13.6268 2.08244 12.5413 1.35311C11.4558 0.623789 10.2006 0.173511 8.89103 0.043674C8.29864 -0.014558 7.70178 -0.014558 7.10938 0.043674C5.79986 0.173596 4.54467 0.623862 3.45915 1.3531C2.37362 2.08234 1.49257 3.06715 0.896942 4.21707C0.147558 5.68429 -0.141898 7.33596 0.0650316 8.96404C0.271961 10.5921 0.966022 12.1238 2.0598 13.3662L7.39346 19.7192C7.46711 19.807 7.55971 19.8777 7.66459 19.9263C7.76946 19.9748 7.88402 20 8.00001 20C8.116 20 8.23055 19.9748 8.33543 19.9263C8.44031 19.8777 8.5329 19.807 8.60656 19.7192L13.9402 13.3662C15.034 12.1239 15.728 10.5923 15.935 8.96424C16.1419 7.33622 15.8524 5.68461 15.1031 4.21745ZM8.00001 10.7688C7.37883 10.7688 6.77161 10.5884 6.25512 10.2503C5.73863 9.91215 5.33607 9.43159 5.09836 8.86935C4.86064 8.3071 4.79845 7.68842 4.91963 7.09154C5.04082 6.49467 5.33994 5.9464 5.77918 5.51607C6.21842 5.08575 6.77804 4.7927 7.38728 4.67397C7.99653 4.55524 8.62802 4.61618 9.20191 4.84907C9.77581 5.08196 10.2663 5.47634 10.6114 5.98235C10.9565 6.48836 11.1407 7.08326 11.1407 7.69183C11.1398 8.50761 10.8085 9.28969 10.2198 9.86653C9.63097 10.4434 8.83268 10.7679 8.00001 10.7688Z" fill="#4F9700"/>
</svg>
