<svg width="65" height="65" viewBox="0 0 65 65" fill="none" xmlns="http://www.w3.org/2000/svg">
<g filter="url(#filter0_i_311_3174)">
<path d="M62.3049 37.9167L64.9497 18.0896C64.9841 17.8237 65 17.5553 65 17.2868C65 15.1277 63.9246 13.2245 62.2917 12.0523V5.41671C62.2917 2.42925 59.8611 0 56.875 0H8.125C5.13894 0 2.70829 2.42925 2.70829 5.41671V12.0523C1.07542 13.2245 0 15.1277 0 17.2868C0 17.5553 0.0158691 17.8237 0.0502734 18.0974L2.69509 37.9167L0.0502734 57.7439C0.0158691 58.0097 0 58.2781 0 58.5466C0 62.1052 2.89618 65 6.45341 65H58.5465C62.1039 65 65 62.1052 65 58.5466C65 58.2781 64.9841 58.0097 64.9497 57.736L62.3049 37.9167ZM5.41671 5.41671C5.41671 3.92374 6.63076 2.70842 8.125 2.70842H56.875C58.3694 2.70842 59.5833 3.92374 59.5833 5.41671V10.9383C59.2438 10.8827 58.9016 10.8333 58.5465 10.8333H6.45341C6.09832 10.8333 5.75618 10.8827 5.41658 10.9383L5.41671 5.41671ZM59.594 38.0952L62.2626 58.085C62.2812 58.2371 62.2917 58.3918 62.2917 58.5465C62.2917 60.6121 60.6122 62.2916 58.5466 62.2916H6.45341C4.38775 62.2916 2.70829 60.6121 2.70829 58.5465C2.70829 58.3917 2.71883 58.237 2.7347 58.0929L5.40604 38.0951C5.41925 37.9774 5.41925 37.8558 5.40604 37.738L2.73749 17.7483C2.71896 17.5962 2.70842 17.4415 2.70842 17.2868C2.70842 15.2212 4.38788 13.5417 6.45354 13.5417H58.5466C60.6122 13.5417 62.2917 15.2212 62.2917 17.2868C62.2917 17.4416 62.2812 17.5963 62.2653 17.7404L59.594 37.7381C59.5808 37.8559 59.5808 37.9775 59.594 38.0952Z" fill="#8ADA2A"/>
<path d="M17.6042 8.125C18.3521 8.125 18.9584 7.5187 18.9584 6.77079C18.9584 6.02288 18.3521 5.41658 17.6042 5.41658C16.8563 5.41658 16.25 6.02288 16.25 6.77079C16.25 7.5187 16.8563 8.125 17.6042 8.125Z" fill="#8ADA2A"/>
<path d="M47.3958 8.125C48.1437 8.125 48.75 7.5187 48.75 6.77079C48.75 6.02288 48.1437 5.41658 47.3958 5.41658C46.6479 5.41658 46.0416 6.02288 46.0416 6.77079C46.0416 7.5187 46.6479 8.125 47.3958 8.125Z" fill="#8ADA2A"/>
</g>
<path d="M22.0541 25.3L25.7341 24H28.1341V38H25.3741V26.92L22.7341 27.66L22.0541 25.3Z" fill="#8DB026"/>
<path d="M35.8685 38.28C34.1218 38.28 32.7485 37.62 31.7485 36.3C30.7618 34.9533 30.2685 33.1866 30.2685 31C30.2685 28.8133 30.7618 27.0533 31.7485 25.72C32.7485 24.3866 34.1218 23.72 35.8685 23.72C37.6418 23.72 39.0152 24.3866 39.9885 25.72C40.9752 27.0533 41.4685 28.8133 41.4685 31C41.4685 33.1866 40.9752 34.9533 39.9885 36.3C39.0152 37.62 37.6418 38.28 35.8685 38.28ZM38.7285 31C38.7285 29.5066 38.4818 28.3666 37.9885 27.58C37.5085 26.7933 36.8018 26.4 35.8685 26.4C34.9352 26.4 34.2285 26.7933 33.7485 27.58C33.2685 28.3666 33.0285 29.5066 33.0285 31C33.0285 32.4933 33.2685 33.6333 33.7485 34.42C34.2285 35.1933 34.9352 35.58 35.8685 35.58C36.8018 35.58 37.5085 35.1866 37.9885 34.4C38.4818 33.6133 38.7285 32.48 38.7285 31Z" fill="#8DB026"/>
<path d="M22.2959 42H27.8399V49H26.0339V43.736H24.1019V46.074C24.1019 48.23 23.1173 49.2053 21.1479 49V47.306C21.5213 47.3993 21.8059 47.334 22.0019 47.11C22.1979 46.886 22.2959 46.508 22.2959 45.976V42Z" fill="#8DB026"/>
<path d="M36.2805 46.242H31.0025C31.2359 47.1193 31.8939 47.558 32.9765 47.558C33.6672 47.558 34.1899 47.3246 34.5445 46.858L36.0005 47.698C35.3099 48.6966 34.2925 49.196 32.9485 49.196C31.7912 49.196 30.8625 48.846 30.1625 48.146C29.4625 47.446 29.1125 46.564 29.1125 45.5C29.1125 44.4546 29.4579 43.5773 30.1485 42.868C30.8299 42.1586 31.7165 41.804 32.8085 41.804C33.8445 41.804 34.6892 42.1586 35.3425 42.868C36.0145 43.5773 36.3505 44.4546 36.3505 45.5C36.3505 45.696 36.3272 45.9433 36.2805 46.242ZM30.9745 44.842H34.5445C34.4419 44.3846 34.2319 44.0346 33.9145 43.792C33.6065 43.5493 33.2379 43.428 32.8085 43.428C32.3232 43.428 31.9219 43.554 31.6045 43.806C31.2872 44.0486 31.0772 44.394 30.9745 44.842Z" fill="#8DB026"/>
<path d="M36.6519 42H42.8539V43.736H40.6699V49H38.8639V43.736H36.6519V42Z" fill="#8DB026"/>
<defs>
<filter id="filter0_i_311_3174" x="0" y="-4" width="65" height="69" filterUnits="userSpaceOnUse" color-interpolation-filters="sRGB">
<feFlood flood-opacity="0" result="BackgroundImageFix"/>
<feBlend mode="normal" in="SourceGraphic" in2="BackgroundImageFix" result="shape"/>
<feColorMatrix in="SourceAlpha" type="matrix" values="0 0 0 0 0 0 0 0 0 0 0 0 0 0 0 0 0 0 127 0" result="hardAlpha"/>
<feOffset dy="-4"/>
<feGaussianBlur stdDeviation="7"/>
<feComposite in2="hardAlpha" operator="arithmetic" k2="-1" k3="1"/>
<feColorMatrix type="matrix" values="0 0 0 0 0.5896 0 0 0 0 0.0881521 0 0 0 0 0.0881521 0 0 0 0.25 0"/>
<feBlend mode="normal" in2="shape" result="effect1_innerShadow_311_3174"/>
</filter>
</defs>
</svg>
