<svg width="65" height="65" viewBox="0 0 65 65" fill="none" xmlns="http://www.w3.org/2000/svg">
<g filter="url(#filter0_i_311_2847)">
<path d="M61.1941 35.0377H59.9245V26.1506C59.9245 22.6471 57.4643 19.7093 54.1811 18.9688L48.4026 8.96017C47.5558 7.49342 46.1885 6.44411 44.5523 6.00572C43.3972 5.69632 42.206 5.71904 41.089 6.05625L36.8872 1.8543C34.4147 -0.617971 30.3921 -0.618225 27.9196 1.8543L10.9871 18.787H7.3636C3.30334 18.787 0 22.0904 0 26.1506V57.6364C0 61.6967 3.30334 65 7.3636 65H24.2491C24.9502 65 25.5187 64.4315 25.5187 63.7304C25.5187 63.0293 24.9502 62.4608 24.2491 62.4608H7.3636C4.70344 62.4608 2.53917 60.2966 2.53917 57.6364V26.1506C2.53917 23.4905 4.70344 21.3262 7.3636 21.3262H52.5609C55.2211 21.3262 57.3853 23.4905 57.3853 26.1506V35.0377H47.9904C44.2102 35.0377 41.1346 38.1133 41.1346 41.8935C41.1346 45.6737 44.2102 48.7493 47.9904 48.7493H57.3853V57.6364C57.3853 60.2966 55.2211 62.4608 52.5609 62.4608H35.6754C34.9743 62.4608 34.4058 63.0293 34.4058 63.7304C34.4058 64.4315 34.9743 65 35.6754 65H52.5609C56.6212 65 59.9245 61.6967 59.9245 57.6364V48.7493H61.1941C63.2942 48.7493 65.0029 47.0407 65.0029 44.9405V38.8465C65.0029 36.7465 63.2942 35.0377 61.1941 35.0377ZM43.8952 8.45843C44.8761 8.72124 45.696 9.35032 46.2037 10.2298L51.1443 18.787H23.7785L41.0103 8.83817C41.8896 8.33059 42.9139 8.1955 43.8952 8.45843ZM29.7152 3.64987C30.4331 2.93179 31.388 2.53632 32.4034 2.53632C33.419 2.53632 34.3738 2.93179 35.0918 3.64987L38.6886 7.24674L18.7003 18.787H14.5782L29.7152 3.64987ZM62.4637 44.9405C62.4637 45.6406 61.8941 46.2101 61.1941 46.2101H47.9904C45.6102 46.2101 43.6738 44.2737 43.6738 41.8935C43.6738 39.5133 45.6102 37.5769 47.9904 37.5769H61.1941C61.8941 37.5769 62.4637 38.1465 62.4637 38.8465V44.9405Z" fill="#8ADA2A"/>
<path d="M47.7784 40.6239C47.4445 40.6239 47.1169 40.7596 46.8808 40.9959C46.6446 41.2322 46.5088 41.5583 46.5088 41.8935C46.5088 42.2274 46.6445 42.555 46.8808 42.791C47.1169 43.0271 47.4445 43.1631 47.7784 43.1631C48.1135 43.1631 48.4398 43.0273 48.6758 42.791C48.9132 42.555 49.048 42.2274 49.048 41.8935C49.048 41.5596 48.9132 41.2321 48.6758 40.9959C48.4398 40.7598 48.1135 40.6239 47.7784 40.6239Z" fill="#8ADA2A"/>
<path d="M29.9623 62.4608C29.6284 62.4608 29.3008 62.5965 29.0647 62.8328C28.8285 63.0691 28.6927 63.3965 28.6927 63.7304C28.6927 64.0643 28.8284 64.3919 29.0647 64.6279C29.3008 64.864 29.6284 65 29.9623 65C30.2962 65 30.6237 64.8642 30.8597 64.6279C31.0959 64.3919 31.2318 64.0643 31.2318 63.7304C31.2318 63.3965 31.096 63.069 30.8597 62.8328C30.6237 62.5967 30.2962 62.4608 29.9623 62.4608Z" fill="#8ADA2A"/>
</g>
<defs>
<filter id="filter0_i_311_2847" x="0" y="-4" width="65.0029" height="69" filterUnits="userSpaceOnUse" color-interpolation-filters="sRGB">
<feFlood flood-opacity="0" result="BackgroundImageFix"/>
<feBlend mode="normal" in="SourceGraphic" in2="BackgroundImageFix" result="shape"/>
<feColorMatrix in="SourceAlpha" type="matrix" values="0 0 0 0 0 0 0 0 0 0 0 0 0 0 0 0 0 0 127 0" result="hardAlpha"/>
<feOffset dy="-4"/>
<feGaussianBlur stdDeviation="7"/>
<feComposite in2="hardAlpha" operator="arithmetic" k2="-1" k3="1"/>
<feColorMatrix type="matrix" values="0 0 0 0 0.5896 0 0 0 0 0.0881521 0 0 0 0 0.0881521 0 0 0 0.25 0"/>
<feBlend mode="normal" in2="shape" result="effect1_innerShadow_311_2847"/>
</filter>
</defs>
</svg>
