<svg width="71" height="70" viewBox="0 0 71 70" fill="none" xmlns="http://www.w3.org/2000/svg">
<g filter="url(#filter0_i_311_2920)">
<path d="M47.09 47.818V39.6728C47.0889 39.5251 47.0589 39.3787 47.0027 39.2421L42.2951 27.5745C42.0415 26.9466 41.7532 26.2622 41.2331 25.6448C40.7904 25.1191 40.1382 24.6267 39.2908 24.5488L39.9597 22.5461C40.3747 21.3116 40.8536 20.2959 42.6905 19.2357L53.3907 12.5396C54.0209 12.1454 54.0689 11.4118 53.7449 10.9234C53.4233 10.4385 52.7341 10.1958 52.1379 10.5688L41.4883 17.2309C39.1851 18.5594 38.2229 20.3287 37.7254 21.8081L36.8174 24.508H27.5631L29.0986 20.2384C29.8521 18.1419 31.3592 15.9791 33.4258 15.0835L54.678 6.4655C54.7029 6.5475 54.7215 6.62958 54.7515 6.71159L64.5874 33.6509L54.3791 47.1389C53.7953 47.907 54.3476 49.0057 55.317 49.0071H62.3806C66.9243 49.0071 70.6143 45.3474 70.6143 40.8437V38.5107C70.6143 36.9549 68.2605 36.9549 68.2605 38.5107V40.8437C68.2605 44.0953 65.6609 46.6742 62.3806 46.6742H57.6799L66.4975 35.0112L69.4443 35.0089C70.1819 35.0077 70.7365 34.3417 70.5983 33.6236L64.9781 3.98441C64.4899 1.41093 61.9279 -0.369712 59.0637 0.0655348C56.6021 0.43941 55.1186 2.18154 54.6503 3.9571L32.4983 12.9384C29.5688 14.2057 27.7898 16.9306 26.8827 19.4545L25.0668 24.5079H24.7266C22.5924 24.5079 21.6335 26.1768 21.2211 27.8024L19.0971 36.1754H3.53761C1.60196 36.1754 0.00230398 37.7542 0.00230398 39.6728V47.8453C0.00230398 49.7639 1.60196 51.3402 3.53761 51.3402H7.06374V53.7689C3.07899 54.3397 0 57.7342 0 61.8389C0 66.3425 3.70159 70 8.24523 70H44.727C49.2707 70 52.9608 66.3425 52.9608 61.8389C52.9608 57.3353 49.2707 53.6733 44.727 53.6733H43.5524L43.5536 51.3402C45.4906 51.3402 47.1335 49.767 47.09 47.818ZM62.6587 4.4151L68.0214 32.6759L66.7365 32.6782L56.965 5.91667C56.4437 4.48885 57.5008 2.71323 59.3751 2.3931C60.9785 2.11931 62.4089 3.09847 62.6587 4.4151ZM60.0268 4.67922C59.3768 4.67922 58.8499 5.20154 58.8499 5.84577C58.8499 6.48999 59.3768 7.01217 60.0268 7.01217C60.6768 7.01217 61.2037 6.49004 61.2037 5.84577C61.2037 5.20149 60.6768 4.67922 60.0268 4.67922ZM43.5524 49.0071H3.53758C2.86521 49.0071 2.35609 48.5116 2.35609 47.8451V39.6726C2.35609 39.0062 2.86521 38.5107 3.53758 38.5107H20.0189C20.5608 38.5116 21.0334 38.1456 21.1636 37.6244L23.5278 28.217C23.7495 27.3348 24.0595 26.8431 24.7265 26.8431H38.854C39.1622 26.8431 39.2163 26.8947 39.4263 27.1438C39.6363 27.3929 39.8827 27.8726 40.1136 28.4448L44.7339 39.8958V47.8577C44.7472 48.5056 44.2246 49.0071 43.5524 49.0071ZM27.0803 29.1762C26.5463 29.1762 26.0791 29.5323 25.9425 30.0442L24.0576 37.0365C23.8527 37.7798 24.4181 38.5123 25.1954 38.5107H30.6087V42.0057C30.6094 42.2363 30.679 42.4613 30.8087 42.6526L33.1625 46.1568C33.3818 46.4813 33.7502 46.6753 34.144 46.674H41.2078C41.8541 46.6717 42.3775 46.1527 42.3801 45.5121V40.8437C42.3791 40.6868 42.3463 40.532 42.2836 40.388L37.8265 29.8893C37.6425 29.4568 37.215 29.176 36.7416 29.1762H27.0803ZM27.9837 31.5093H30.6087V36.1753H26.724L27.9837 31.5093ZM32.9625 31.5093H35.96L40.0263 41.0761V44.3409H34.7693L32.9625 41.6527V31.5093ZM5.87301 40.8254C5.22303 40.8343 4.7023 41.3614 4.7099 42.0057V45.5121C4.67387 47.1027 7.09974 47.1027 7.06371 45.5121V42.0057C7.07216 41.3507 6.53379 40.8178 5.87301 40.8254ZM10.5829 40.8254C9.93295 40.8343 9.41221 41.3614 9.41981 42.0057V45.5121C9.38512 47.1013 11.8083 47.1013 11.7736 45.5121V42.0057C11.7821 41.3507 11.2437 40.8178 10.5829 40.8254ZM15.2837 40.8254C14.6364 40.8387 14.1198 41.3641 14.1274 42.0057V45.5121C14.1621 47.0329 16.4468 47.0329 16.4813 45.5121V42.0057C16.4897 41.348 15.9471 40.8139 15.2837 40.8254ZM9.41981 51.3401H41.1986V53.6731H35.3071C33.7364 53.6731 33.7364 56.0085 35.3071 56.0085H44.727C48.0074 56.0085 50.6069 58.5874 50.6069 61.8388C50.6069 65.0902 48.0074 67.6669 44.727 67.6669H8.2452C4.96487 67.6669 2.35609 65.0902 2.35609 61.8388C2.35609 58.5874 4.96487 56.0085 8.2452 56.0085H30.6087C32.1795 56.0085 32.1795 53.6731 30.6087 53.6731H9.41981V51.3401ZM10.6013 58.3415C8.66535 58.3415 7.06371 59.9199 7.06371 61.8388C7.06371 63.7577 8.6653 65.3429 10.6013 65.343C12.5374 65.343 14.1274 63.7577 14.1274 61.8388C14.1274 59.9199 12.5373 58.3415 10.6013 58.3415ZM21.1912 58.3415C19.2552 58.3415 17.6536 59.9199 17.6536 61.8388C17.6536 63.7577 19.2551 65.343 21.1912 65.343C23.1272 65.3429 24.7173 63.7577 24.7173 61.8388C24.7172 59.9199 23.1272 58.3415 21.1912 58.3415ZM31.781 58.3415C29.845 58.3415 28.2549 59.9199 28.2549 61.8388C28.2549 63.7577 29.845 65.343 31.781 65.343C33.7171 65.343 35.3071 63.7577 35.3071 61.8388C35.3071 59.9199 33.717 58.3415 31.781 58.3415ZM42.3709 58.3415C40.4349 58.3415 38.8448 59.9199 38.8448 61.8388C38.8448 63.7577 40.4348 65.343 42.3709 65.343C44.3069 65.343 45.9085 63.7577 45.9085 61.8388C45.9085 59.9199 44.3069 58.3415 42.3709 58.3415ZM10.6013 60.6745C11.2653 60.6745 11.7736 61.1807 11.7736 61.8388C11.7736 62.4969 11.2653 63.0099 10.6013 63.0099C9.93738 63.0099 9.41981 62.4968 9.41981 61.8388C9.41981 61.1807 9.93738 60.6746 10.6013 60.6745ZM21.1912 60.6745C21.8551 60.6746 22.3635 61.1807 22.3635 61.8388C22.3635 62.4968 21.8551 63.0099 21.1912 63.0099C20.5272 63.0099 20.0096 62.4969 20.0097 61.8388C20.0097 61.1807 20.5272 60.6745 21.1912 60.6745ZM31.781 60.6745C32.445 60.6745 32.9533 61.1807 32.9533 61.8388C32.9533 62.4969 32.445 63.0099 31.781 63.0099C31.1171 63.0099 30.6087 62.4969 30.6087 61.8388C30.6087 61.1807 31.1171 60.6745 31.781 60.6745ZM42.3709 60.6745C43.0348 60.6745 43.5524 61.1807 43.5524 61.8388C43.5524 62.4969 43.0348 63.0099 42.3709 63.0099C41.7069 63.0099 41.1986 62.4969 41.1986 61.8388C41.1986 61.1807 41.7069 60.6745 42.3709 60.6745Z" fill="#8ADA2A"/>
</g>
<defs>
<filter id="filter0_i_311_2920" x="0" y="-4" width="70.6196" height="74" filterUnits="userSpaceOnUse" color-interpolation-filters="sRGB">
<feFlood flood-opacity="0" result="BackgroundImageFix"/>
<feBlend mode="normal" in="SourceGraphic" in2="BackgroundImageFix" result="shape"/>
<feColorMatrix in="SourceAlpha" type="matrix" values="0 0 0 0 0 0 0 0 0 0 0 0 0 0 0 0 0 0 127 0" result="hardAlpha"/>
<feOffset dy="-4"/>
<feGaussianBlur stdDeviation="7"/>
<feComposite in2="hardAlpha" operator="arithmetic" k2="-1" k3="1"/>
<feColorMatrix type="matrix" values="0 0 0 0 0.5896 0 0 0 0 0.0881521 0 0 0 0 0.0881521 0 0 0 0.25 0"/>
<feBlend mode="normal" in2="shape" result="effect1_innerShadow_311_2920"/>
</filter>
</defs>
</svg>
