<svg width="60" height="72" viewBox="0 0 60 72" fill="none" xmlns="http://www.w3.org/2000/svg">
<g filter="url(#filter0_i_311_2844)">
<path d="M55.2 39.6C55.2 37.56 53.04 36 50.4 36C47.76 36 45.6 37.56 45.6 39.6V43.2L39.72 40.68C41.16 39.36 42.12 37.68 42.72 35.88L45.96 34.2C47.16 33.6 48 32.4 48 30.96V28.8C48 26.76 46.44 25.2 44.4 25.2H43.92L43.2 25.92V22.8H45.6V19.2C45.6 11.76 40.68 5.16 33.6 3.12C33.36 1.32 31.8 0 30 0H27.6C25.8 0 24.24 1.32 24 3.12C16.92 5.16 12 11.76 12 19.2V22.8H14.4V25.92L13.68 25.2H13.2C11.16 25.2 9.6 26.76 9.6 28.8V30.96C9.6 32.28 10.32 33.6 11.64 34.2L14.88 35.88C15.48 37.68 16.44 39.36 17.88 40.68L7.92 45C3.12 47.16 0 51.84 0 57.12V72H60V37.08L55.2 43.8V39.6ZM48 53.76V42.72C49.56 43.32 51.24 43.32 52.8 42.72V47.04L48 53.76ZM50.4 38.4C51.84 38.4 52.8 39.12 52.8 39.6C52.8 40.08 51.84 40.8 50.4 40.8C48.96 40.8 48 40.08 48 39.6C48 39.12 48.96 38.4 50.4 38.4ZM45.6 48.84L37.8 54.6C37.2 54.96 36.36 55.2 35.64 55.2H31.56L31.92 53.76C32.04 53.28 32.52 52.8 33.12 52.8H34.8C36.72 52.8 38.52 51.84 39.72 50.28L43.56 44.88L45.72 45.84V48.84H45.6ZM29.64 53.16L28.8 56.28L27.96 53.16C27.6 51.48 26.16 50.4 24.48 50.4H22.8C21.6 50.4 20.52 49.8 19.92 48.84L16.32 43.8L20.04 42.12L23.52 44.04C26.76 45.84 30.6 45.84 33.84 44.04L37.32 42.12L41.04 43.8L37.44 48.84C36.72 49.8 35.64 50.4 34.56 50.4H32.88C31.44 50.4 30 51.48 29.64 53.16ZM26.04 55.2H21.96C21.24 55.2 20.4 54.96 19.8 54.48L9.36 46.92L14.04 44.88L17.88 50.28C18.96 51.84 20.88 52.8 22.8 52.8H24.48C25.08 52.8 25.56 53.16 25.68 53.76L26.04 55.2ZM44.88 27.72C45.36 27.84 45.6 28.32 45.6 28.8V30.96C45.6 31.44 45.36 31.8 44.88 32.04L43.2 32.88V29.4L44.88 27.72ZM14.64 20.4C15.12 18.96 16.44 18 18 18H39.6C41.16 18 42.48 18.96 42.96 20.4H14.64ZM24 5.64V13.2H26.4V3.6C26.4 2.88 26.88 2.4 27.6 2.4H30C30.72 2.4 31.2 2.88 31.2 3.6V13.2H33.6V5.64C38.52 7.32 42.12 11.52 42.96 16.68C42 15.96 40.8 15.6 39.6 15.6H18C16.8 15.6 15.6 15.96 14.64 16.68C15.48 11.52 19.08 7.32 24 5.64ZM12.72 32.04C12.36 31.8 12 31.44 12 30.96V28.8C12 28.32 12.36 27.84 12.72 27.72L14.4 29.4V32.88L12.72 32.04ZM16.8 32.76V22.8H40.8V32.76C40.8 35.88 39.12 38.64 36.48 40.08L32.88 42C30.36 43.32 27.36 43.32 24.84 42L21.24 40.08C18.48 38.64 16.8 35.76 16.8 32.76ZM2.4 57C2.4 53.4 4.2 50.16 7.08 48.12L18.48 56.4C19.56 57.12 20.76 57.6 21.96 57.6H27.6V69.6H24V60H15.36L14.4 56.16L12 56.64L12.84 60H10.8V69.6H2.4V57ZM21.6 62.4V64.8H13.2V62.4H21.6ZM13.2 67.2H21.6V69.6H13.2V67.2ZM30 69.6V57.6H35.64C36.96 57.6 38.16 57.24 39.12 56.4L45.6 51.72V57L36.6 69.6H30ZM57.6 44.52V69.6H39.6L55.2 48V47.88L57.6 44.52Z" fill="#8ADA2A"/>
<path d="M55.2 67.2V51.24L44.52 67.2H55.2ZM52.8 64.8H49.08L52.8 59.16V64.8Z" fill="#8ADA2A"/>
</g>
<defs>
<filter id="filter0_i_311_2844" x="0" y="-4" width="60" height="76" filterUnits="userSpaceOnUse" color-interpolation-filters="sRGB">
<feFlood flood-opacity="0" result="BackgroundImageFix"/>
<feBlend mode="normal" in="SourceGraphic" in2="BackgroundImageFix" result="shape"/>
<feColorMatrix in="SourceAlpha" type="matrix" values="0 0 0 0 0 0 0 0 0 0 0 0 0 0 0 0 0 0 127 0" result="hardAlpha"/>
<feOffset dy="-4"/>
<feGaussianBlur stdDeviation="7"/>
<feComposite in2="hardAlpha" operator="arithmetic" k2="-1" k3="1"/>
<feColorMatrix type="matrix" values="0 0 0 0 0.5896 0 0 0 0 0.0881521 0 0 0 0 0.0881521 0 0 0 0.25 0"/>
<feBlend mode="normal" in2="shape" result="effect1_innerShadow_311_2844"/>
</filter>
</defs>
</svg>
