<svg width="1241" height="416" viewBox="0 0 1241 416" fill="none" xmlns="http://www.w3.org/2000/svg">
<g clip-path="url(#clip0_59_11)">
<path d="M1080.82 173.094C1076.39 199.847 1063.61 223.791 1045.27 242.134C1022.24 265.159 990.44 279.389 955.314 279.389C920.17 279.389 888.368 265.141 865.342 242.134C846.907 223.68 834.091 199.59 829.721 172.672C841.601 175.114 853.664 177.005 865.82 178.474C870.282 193.659 878.489 207.228 889.359 218.098C906.234 234.973 929.553 245.42 955.314 245.42C981.057 245.42 1004.38 234.973 1021.25 218.098C1032.07 207.283 1040.25 193.806 1044.72 178.731C1056.82 177.299 1068.86 175.463 1080.82 173.094Z" fill="#89B640"/>
<path d="M125.867 161.545C137.893 168.32 143.898 178.805 143.898 192.998C143.898 205.264 139.289 215.106 130.09 222.524C120.891 229.942 108.735 233.651 93.642 233.651C67.5685 233.651 50.2352 223.166 41.6787 202.197L71.0205 185.323C74.8581 195.936 82.4047 201.243 93.642 201.243C104.255 201.243 109.561 197.277 109.561 189.344C109.561 182.44 105.283 178.621 96.7267 177.85L76.3821 177.648V147.921H89.6208C99.9767 147.921 105.155 144.212 105.155 136.812C105.155 129.394 100.546 125.685 91.3468 125.685C82.1476 125.685 75.7578 130.22 72.1773 139.291L43.4047 122.618C47.4993 113.529 53.7239 106.442 62.0968 101.319C70.4697 96.2144 80.4216 93.6621 91.916 93.6621C105.981 93.6621 117.42 97.3344 126.252 104.679C135.066 112.042 139.491 121.774 139.491 133.929C139.491 145.699 134.937 154.898 125.867 161.545Z" fill="#18650B"/>
<path d="M198.56 198.562H250.542V230.768H164.242V96.5264H249.569V128.549H198.56V147.168H244.776V178.805H198.56V198.562Z" fill="#18650B"/>
<path d="M410.287 96.5264V230.768H376.153V158.478L343.561 212.37H340.109L307.683 158.662V230.768H273.365V96.5264H307.683L341.835 153.87L376.153 96.5264H410.287Z" fill="#18650B"/>
<path d="M428.521 230.768V198.745C435.682 199.645 440.878 198.58 444.146 195.587C447.415 192.576 449.03 186.351 449.03 176.895V96.5264H544.547V230.768H510.211V129.706H483.367V178.419C483.367 189.418 481.806 198.709 478.666 206.329C475.526 213.93 471.248 219.531 465.813 223.111C460.378 226.692 454.594 229.042 448.461 230.199C442.328 231.355 435.682 231.539 428.521 230.768Z" fill="#18650B"/>
<path d="M606.499 198.562H658.463V230.768H572.163V96.5264H657.508V128.549H606.499V147.168H652.715V178.805H606.499V198.562Z" fill="#18650B"/>
<path d="M792.521 230.768H754.163L715.622 170.744V230.768H681.304V96.5264H715.622V152.915L752.254 96.5264H790.611L748.03 161.728L792.521 230.768Z" fill="#18650B"/>
<path d="M1235.68 96.5264V230.768H1201.34V129.706H1166.44V230.768H1132.12V96.5264H1235.68Z" fill="#18650B"/>
<path d="M80.7154 380.066C84.9202 381.958 87.0134 385.079 87.0134 389.449C87.0134 392.809 85.6547 395.619 82.9188 397.877C80.1829 400.136 76.3821 401.274 71.4979 401.274C63.5657 401.274 58.2041 398.116 55.4131 391.818L62.3538 387.705C63.7677 391.652 66.8524 393.617 71.5713 393.617C73.7747 393.617 75.5191 393.158 76.7677 392.24C78.0346 391.322 78.6589 390.11 78.6589 388.586C78.6589 387.209 78.1631 386.126 77.1716 385.318C76.1617 384.491 74.7846 384.087 72.9852 384.087H67.4033V376.596H71.5713C73.3157 376.596 74.6561 376.192 75.6292 375.384C76.6024 374.558 77.0982 373.456 77.0982 372.024C77.0982 370.665 76.529 369.545 75.4273 368.682C74.3256 367.819 72.8566 367.378 71.0205 367.378C67.0727 367.378 64.3552 369.123 62.8312 372.575L55.8905 368.645C58.8284 362.751 63.8227 359.813 70.8552 359.813C75.2804 359.813 78.7874 360.934 81.3764 363.174C83.9838 365.395 85.2874 368.113 85.2874 371.326C85.2874 375.256 83.7634 378.175 80.7154 380.066Z" fill="white"/>
<path d="M100.656 384.161C101.28 387.154 102.731 389.467 104.989 391.065C107.248 392.662 110.002 393.47 113.252 393.47C117.769 393.47 121.166 391.836 123.424 388.586L130.439 392.681C126.546 398.41 120.799 401.274 113.179 401.274C106.771 401.274 101.593 399.309 97.6632 395.398C93.7154 391.487 91.7507 386.53 91.7507 380.544C91.7507 374.65 93.6971 369.729 97.5714 365.763C101.464 361.797 106.458 359.813 112.554 359.813C118.32 359.813 123.076 361.833 126.766 365.891C130.475 369.931 132.33 374.833 132.33 380.617C132.33 381.517 132.22 382.692 132.018 384.161H100.656ZM100.564 377.239H123.737C123.167 374.025 121.827 371.62 119.752 369.986C117.677 368.352 115.254 367.544 112.463 367.544C109.323 367.544 106.697 368.407 104.585 370.133C102.492 371.877 101.152 374.246 100.564 377.239Z" fill="white"/>
<path d="M179.996 360.842V400.246H171.734V374.319L160.386 392.369H159.358L148.084 374.393V400.246H139.821V360.842H148.488L159.909 379.038L171.33 360.842H179.996Z" fill="white"/>
<path d="M196.54 384.161C197.183 387.154 198.615 389.467 200.874 391.065C203.132 392.662 205.905 393.47 209.155 393.47C213.672 393.47 217.069 391.836 219.327 388.586L226.341 392.681C222.448 398.41 216.701 401.274 209.081 401.274C202.673 401.274 197.495 399.309 193.547 395.398C189.618 391.487 187.635 386.53 187.635 380.544C187.635 374.65 189.581 369.729 193.474 365.763C197.367 361.797 202.361 359.813 208.439 359.813C214.222 359.813 218.96 361.833 222.669 365.891C226.378 369.931 228.232 374.833 228.232 380.617C228.232 381.517 228.122 382.692 227.902 384.161H196.54ZM196.467 377.239H219.639C219.052 374.025 217.73 371.62 215.655 369.986C213.58 368.352 211.156 367.544 208.365 367.544C205.207 367.544 202.581 368.407 200.488 370.133C198.395 371.877 197.054 374.246 196.467 377.239Z" fill="white"/>
<path d="M267.379 360.842V400.246H258.878V369.031H245.713V383.702C245.713 389.945 244.354 394.388 241.618 397.014C238.882 399.64 235.008 400.723 229.958 400.246V392.277C232.382 392.699 234.182 392.203 235.393 390.79C236.605 389.376 237.211 386.879 237.211 383.298V360.842H267.379Z" fill="white"/>
<path d="M294.499 374.246C298.704 374.246 302.138 375.439 304.819 377.826C307.499 380.213 308.84 383.353 308.84 387.246C308.84 391.065 307.499 394.205 304.819 396.61C302.138 399.034 298.704 400.246 294.499 400.246H277.313V360.842H285.833V374.246H294.499ZM294.573 392.607C296.262 392.607 297.657 392.093 298.796 391.102C299.916 390.11 300.485 388.806 300.485 387.246C300.485 385.612 299.916 384.308 298.796 383.335C297.657 382.362 296.262 381.884 294.573 381.884H285.833V392.607H294.573Z" fill="white"/>
<path d="M342.331 360.842H350.833V400.246H342.331V384.565H324.282V400.246H315.762V360.842H324.282V376.523H342.331V360.842Z" fill="white"/>
<path d="M377.861 374.246C382.066 374.246 385.499 375.439 388.18 377.826C390.861 380.213 392.201 383.353 392.201 387.246C392.201 391.065 390.861 394.205 388.18 396.61C385.499 399.034 382.066 400.246 377.861 400.246H360.693V360.842H369.194V374.246H377.861ZM396.939 360.842H405.44V400.246H396.939V360.842ZM377.934 392.607C379.624 392.607 381.019 392.093 382.158 391.102C383.278 390.11 383.847 388.806 383.847 387.246C383.847 385.612 383.278 384.308 382.158 383.335C381.019 382.362 379.624 381.884 377.934 381.884H369.194V392.607H377.934Z" fill="white"/>
<path d="M421.984 384.161C422.626 387.154 424.059 389.467 426.317 391.065C428.576 392.662 431.348 393.47 434.598 393.47C439.115 393.47 442.512 391.836 444.77 388.586L451.766 392.681C447.892 398.41 442.126 401.274 434.525 401.274C428.117 401.274 422.939 399.309 418.991 395.398C415.061 391.487 413.078 386.53 413.078 380.544C413.078 374.65 415.025 369.729 418.917 365.763C422.81 361.797 427.786 359.813 433.882 359.813C439.666 359.813 444.403 361.833 448.112 365.891C451.821 369.931 453.657 374.833 453.657 380.617C453.657 381.517 453.566 382.692 453.345 384.161H421.984ZM421.91 377.239H445.083C444.495 374.025 443.173 371.62 441.098 369.986C439.023 368.352 436.6 367.544 433.809 367.544C430.65 367.544 428.025 368.407 425.931 370.133C423.82 371.877 422.479 374.246 421.91 377.239Z" fill="white"/>
<path d="M503.16 359.813C508.559 359.813 513.186 361.833 517.023 365.854C520.861 369.857 522.77 374.76 522.77 380.544C522.77 386.364 520.861 391.285 517.023 395.27C513.186 399.273 508.559 401.274 503.16 401.274C497.156 401.274 492.566 399.052 489.371 394.645V416H480.851V360.842H489.371V366.515C492.566 362.054 497.156 359.813 503.16 359.813ZM492.915 389.559C495.265 391.946 498.239 393.158 501.82 393.158C505.382 393.158 508.357 391.946 510.725 389.559C513.076 387.172 514.269 384.161 514.269 380.544C514.269 376.926 513.076 373.915 510.725 371.528C508.357 369.123 505.382 367.929 501.82 367.929C498.239 367.929 495.265 369.123 492.915 371.528C490.546 373.915 489.371 376.926 489.371 380.544C489.371 384.161 490.546 387.172 492.915 389.559Z" fill="white"/>
<path d="M561.697 360.842H570.217V400.246H561.697V394.572C558.502 399.034 553.893 401.274 547.908 401.274C542.491 401.274 537.882 399.254 534.044 395.233C530.207 391.212 528.297 386.328 528.297 380.544C528.297 374.705 530.207 369.802 534.044 365.799C537.882 361.815 542.491 359.813 547.908 359.813C553.893 359.813 558.502 362.017 561.697 366.442V360.842ZM540.343 389.559C542.711 391.946 545.686 393.158 549.248 393.158C552.828 393.158 555.785 391.946 558.153 389.559C560.522 387.172 561.697 384.161 561.697 380.544C561.697 376.926 560.522 373.915 558.153 371.528C555.785 369.123 552.828 367.929 549.248 367.929C545.686 367.929 542.711 369.123 540.343 371.528C537.974 373.915 536.799 376.926 536.799 380.544C536.799 384.161 537.974 387.172 540.343 389.559Z" fill="white"/>
<path d="M598.42 401.274C592.379 401.274 587.458 399.309 583.639 395.398C579.838 391.487 577.929 386.474 577.929 380.378C577.929 373.713 578.939 368.554 580.922 364.9C582.923 361.246 586.963 357.922 593.059 354.929C594.05 354.452 595.537 353.773 597.52 352.891C599.485 351.991 600.844 351.349 601.578 350.945C602.313 350.559 603.231 349.99 604.333 349.219C605.434 348.466 606.242 347.64 606.775 346.777C607.289 345.914 607.711 344.867 608.023 343.655L614.964 347.676C614.762 348.833 614.413 349.898 613.936 350.871C613.477 351.845 612.779 352.744 611.898 353.589C610.998 354.434 610.227 355.113 609.566 355.645C608.905 356.16 607.821 356.802 606.297 357.537C604.773 358.271 603.653 358.785 602.955 359.116C602.239 359.428 600.917 359.979 598.971 360.768C595.501 362.127 592.967 363.541 591.369 364.973C589.772 366.424 588.652 368.223 588.009 370.371C591.167 366.809 595.446 365.01 600.862 365.01C605.489 365.01 609.511 366.681 612.963 369.986C616.396 373.291 618.122 377.569 618.122 382.821C618.122 388.182 616.286 392.607 612.65 396.059C608.996 399.53 604.259 401.274 598.42 401.274ZM598.347 393.305C601.652 393.305 604.351 392.313 606.463 390.349C608.556 388.384 609.602 385.869 609.602 382.821C609.602 379.736 608.574 377.184 606.499 375.182C604.424 373.181 601.725 372.189 598.42 372.189C595.482 372.189 592.82 373.126 590.47 374.98C588.101 376.853 586.907 379.332 586.907 382.435C586.907 385.593 588.009 388.182 590.231 390.239C592.434 392.277 595.134 393.305 598.347 393.305Z" fill="white"/>
<path d="M643.406 401.274C637.641 401.274 632.72 399.273 628.68 395.27C624.641 391.285 622.602 386.364 622.602 380.544C622.602 374.705 624.641 369.802 628.68 365.799C632.72 361.815 637.641 359.813 643.406 359.813C649.245 359.813 654.166 361.815 658.187 365.799C662.208 369.802 664.21 374.705 664.21 380.544C664.21 386.364 662.208 391.285 658.187 395.27C654.166 399.273 649.245 401.274 643.406 401.274ZM634.666 389.449C637.035 391.818 639.954 392.993 643.406 392.993C646.876 392.993 649.796 391.818 652.165 389.449C654.515 387.08 655.708 384.106 655.708 380.544C655.708 376.963 654.515 374.007 652.165 371.638C649.796 369.27 646.876 368.095 643.406 368.095C639.954 368.095 637.035 369.27 634.666 371.638C632.297 374.007 631.122 376.963 631.122 380.544C631.122 384.106 632.297 387.08 634.666 389.449Z" fill="white"/>
<path d="M700.455 360.842V369.031H687.621V400.246H679.101V369.031H666.193V360.842H700.455Z" fill="white"/>
<path d="M723.389 374.246C727.594 374.246 731.046 375.439 733.708 377.826C736.389 380.213 737.73 383.353 737.73 387.246C737.73 391.065 736.389 394.205 733.708 396.61C731.046 399.034 727.594 400.246 723.389 400.246H706.221V360.842H714.722V374.246H723.389ZM742.467 360.842H750.968V400.246H742.467V360.842ZM723.481 392.607C725.152 392.607 726.566 392.093 727.686 391.102C728.824 390.11 729.375 388.806 729.375 387.246C729.375 385.612 728.824 384.308 727.686 383.335C726.566 382.362 725.152 381.884 723.481 381.884H714.722V392.607H723.481Z" fill="white"/>
<path d="M815.583 360.842V400.246H807.081V368.884H789.032V400.246H780.53V360.842H815.583Z" fill="white"/>
<path d="M844.043 401.274C838.259 401.274 833.338 399.273 829.299 395.27C825.259 391.285 823.239 386.364 823.239 380.544C823.239 374.705 825.259 369.802 829.299 365.799C833.338 361.815 838.259 359.813 844.043 359.813C849.864 359.813 854.785 361.815 858.806 365.799C862.827 369.802 864.828 374.705 864.828 380.544C864.828 386.364 862.827 391.285 858.806 395.27C854.785 399.273 849.864 401.274 844.043 401.274ZM835.285 389.449C837.653 391.818 840.573 392.993 844.043 392.993C847.495 392.993 850.415 391.818 852.783 389.449C855.152 387.08 856.327 384.106 856.327 380.544C856.327 376.963 855.152 374.007 852.783 371.638C850.415 369.27 847.495 368.095 844.043 368.095C840.573 368.095 837.653 369.27 835.285 371.638C832.916 374.007 831.741 376.963 831.741 380.544C831.741 384.106 832.916 387.08 835.285 389.449Z" fill="white"/>
<path d="M918.885 401.274C910.585 401.274 903.718 398.52 898.246 393.03C892.793 387.54 890.057 380.746 890.057 372.667C890.057 364.569 892.793 357.776 898.246 352.286C903.718 346.795 910.585 344.06 918.885 344.06C923.879 344.06 928.488 345.235 932.729 347.603C936.953 349.972 940.239 353.167 942.608 357.225L934.731 361.797C933.262 359.061 931.114 356.894 928.304 355.278C925.495 353.681 922.355 352.891 918.885 352.891C913.009 352.891 908.235 354.746 904.599 358.473C900.946 362.201 899.109 366.938 899.109 372.667C899.109 378.396 900.946 383.115 904.599 386.842C908.235 390.569 913.009 392.442 918.885 392.442C922.355 392.442 925.513 391.634 928.341 390.037C931.187 388.44 933.317 386.273 934.731 383.537L942.608 388.036C940.294 392.075 937.026 395.288 932.803 397.675C928.58 400.062 923.934 401.274 918.885 401.274Z" fill="white"/>
<path d="M990.679 345.088V400.246H981.627V353.755H959.152V400.246H950.1V345.088H990.679Z" fill="white"/>
<path d="M1022.59 366.351C1027.7 366.351 1031.92 367.966 1035.28 371.161C1038.64 374.375 1040.33 378.414 1040.33 383.298C1040.33 388.183 1038.64 392.222 1035.28 395.435C1031.92 398.649 1027.7 400.246 1022.59 400.246H1001.71V345.088H1035.59V353.755H1010.77V366.351H1022.59ZM1022.59 391.726C1025.07 391.726 1027.13 390.955 1028.78 389.413C1030.43 387.852 1031.26 385.814 1031.26 383.298C1031.26 380.783 1030.43 378.745 1028.78 377.184C1027.13 375.642 1025.07 374.87 1022.59 374.87H1010.77V391.726H1022.59Z" fill="white"/>
<path d="M1095.49 360.842H1102.02V400.246H1093.67V375.182L1073.49 400.246H1066.95V360.842H1075.31V385.814L1095.49 360.842Z" fill="white"/>
<path d="M1127.64 400.246V391.892C1131.09 392.369 1133.68 391.524 1135.39 389.376C1137.09 387.209 1137.96 383.096 1137.96 377V345.088H1174.92V400.246H1165.85V353.755H1147.01V376.835C1147.01 381.664 1146.5 385.74 1145.49 389.046C1144.46 392.369 1143.01 394.848 1141.1 396.5C1139.21 398.153 1137.19 399.255 1135 399.805C1132.82 400.356 1130.36 400.503 1127.64 400.246Z" fill="white"/>
<path d="M1232.08 392.956C1226.53 398.502 1219.78 401.274 1211.79 401.274C1203.8 401.274 1197.04 398.502 1191.5 392.956C1185.95 387.411 1183.18 380.654 1183.18 372.667C1183.18 364.68 1185.95 357.923 1191.5 352.377C1197.04 346.832 1203.8 344.06 1211.79 344.06C1219.78 344.06 1226.53 346.832 1232.08 352.377C1237.62 357.923 1240.4 364.68 1240.4 372.667C1240.4 380.654 1237.62 387.411 1232.08 392.956ZM1197.87 386.805C1201.63 390.569 1206.28 392.442 1211.79 392.442C1217.3 392.442 1221.94 390.569 1225.69 386.805C1229.45 383.041 1231.33 378.341 1231.33 372.667C1231.33 366.993 1229.45 362.274 1225.69 358.51C1221.94 354.764 1217.3 352.891 1211.79 352.891C1206.28 352.891 1201.63 354.764 1197.87 358.51C1194.12 362.274 1192.25 366.993 1192.25 372.667C1192.25 378.341 1194.12 383.041 1197.87 386.805Z" fill="white"/>
<path d="M798.451 296.522H44.1575V262.553H798.451V296.522Z" fill="white"/>
<path fill-rule="evenodd" clip-rule="evenodd" d="M956.398 0C972.739 0 988.255 3.50706 1002.25 9.80508C1002.89 20.5833 1002.17 31.4901 1000.23 41.387C993.984 73.024 989.485 89.0353 983.169 105.616C1008.2 84.4633 1021.91 52.1469 1023.88 22.6766C1050.76 43.0763 1068.13 75.3743 1068.13 111.73C1068.13 114.264 1068.04 116.798 1067.85 119.314C1075.18 118.138 1081.97 116.853 1088.16 115.476V153.668C1045.01 163.032 1000.65 165.218 956.398 165.218C912.109 165.218 865.838 162.977 822.45 153.209V114.999C829.225 116.559 836.754 118.01 844.943 119.332C844.778 116.816 844.667 114.282 844.667 111.73C844.667 76.3107 861.156 44.7472 886.862 24.274C889.194 53.3037 902.874 84.8489 927.441 105.616C921.125 89.0353 916.626 73.024 910.383 41.387C908.511 31.8206 907.758 21.2811 908.309 10.8517C922.869 3.89266 939.174 0 956.398 0Z" fill="#89B640"/>
<path d="M1236.93 296.522H1132.56V262.553H1236.93V296.522Z" fill="white"/>
<path d="M798.451 61.4748H44.1575V27.5059H798.451V61.4748Z" fill="#89B640"/>
<path d="M1236.93 61.4748H1132.56V27.5059H1236.93V61.4748Z" fill="#89B640"/>
<path d="M37.1617 155.412C37.0332 154.623 36.923 153.797 36.8679 152.915C36.4456 147.26 36.8679 139.364 41.8807 129.541C47.4993 137.088 61.8213 142.761 62.8129 155.321C63.1434 160.572 61.0869 165.052 59.214 167.586C57.1942 163.896 53.8708 159.985 48.8397 157.598C45.6815 156.092 41.8072 155.192 37.1617 155.412Z" fill="#89B640"/>
<path d="M45.6815 162.372C41.3298 160.297 35.6194 159.452 28.3482 161.197C20.9668 162.959 11.0883 166.705 0.603821 177.079C12.5205 181.174 25.5572 197.112 41.9725 193.274C50.8044 191.071 56.4047 184.222 57.6716 181.027C57.8001 180.715 57.8736 180.44 57.9287 180.201C57.9654 179.926 57.9838 179.577 57.947 179.173C57.947 178.934 57.9103 178.659 57.8736 178.383C57.2493 174.307 53.7973 166.246 45.6815 162.372Z" fill="#89B640"/>
</g>
<defs>
<clipPath id="clip0_59_11">
<rect width="1241" height="416" fill="white"/>
</clipPath>
</defs>
</svg>
